<svg width="64" height="64" viewBox="0 0 64 64" fill="none" xmlns="http://www.w3.org/2000/svg">
  <rect width="64" height="64" rx="18" fill="url(#paint0_linear_folder)"/>
  <path d="M16 22C16 19.7909 17.7909 18 20 18H28L32 22H44C46.2091 22 48 23.7909 48 26V42C48 44.2091 46.2091 46 44 46H20C17.7909 46 16 44.2091 16 42V22Z" fill="white" fill-opacity="0.92"/>
  <path d="M18 28H46L43.4 39.2C43.1664 40.2358 42.2586 41 41.2 41H21.2C20.1414 41 19.2336 40.2358 19 39.2L18 28Z" fill="url(#paint1_linear_folder)"/>
  <defs>
    <linearGradient id="paint0_linear_folder" x1="12" y1="10" x2="52" y2="54" gradientUnits="userSpaceOnUse">
      <stop stop-color="#FFC56B"/>
      <stop offset="1" stop-color="#FF7E88"/>
    </linearGradient>
    <linearGradient id="paint1_linear_folder" x1="18" y1="28" x2="45" y2="41" gradientUnits="userSpaceOnUse">
      <stop stop-color="#2F3460"/>
      <stop offset="1" stop-color="#4C5AA8"/>
    </linearGradient>
  </defs>
</svg>
