<?xml version="1.0" encoding="UTF-8"?>
<svg width="24" height="24" viewBox="0 0 24 24" xmlns="http://www.w3.org/2000/svg">
  <rect x="2" y="3" width="6" height="18" rx="1.2" fill="#ffffff" opacity="0.08"/>
  <rect x="2" y="3" width="6" height="3" fill="#ffffff" opacity="0.25"/>
  <rect x="2" y="6" width="6" height="3" fill="#ffffff" opacity="0.1"/>
  <rect x="2" y="9" width="6" height="3" fill="#ffffff" opacity="0.25"/>
  <rect x="2" y="12" width="6" height="3" fill="#ffffff" opacity="0.1"/>
  <rect x="2" y="15" width="6" height="3" fill="#ffffff" opacity="0.25"/>
  <rect x="2" y="18" width="6" height="3" fill="#ffffff" opacity="0.1"/>
  <rect x="9" y="4" width="13" height="2.4" rx="1" fill="#ffffff" opacity="0.15"/>
  <rect x="9" y="8" width="13" height="2.4" rx="1" fill="#ffffff" opacity="0.15"/>
  <rect x="9" y="12" width="13" height="2.4" rx="1" fill="#ffffff" opacity="0.15"/>
  <rect x="9" y="16" width="13" height="2.4" rx="1" fill="#ffffff" opacity="0.15"/>
  <rect x="10" y="4.4" width="4.5" height="1.6" rx="0.8" fill="#ffffff"/>
  <rect x="15" y="8.4" width="6.5" height="1.6" rx="0.8" fill="#ffffff"/>
  <rect x="12" y="16.4" width="3.5" height="1.6" rx="0.8" fill="#ffffff"/>
</svg>
